# xmcd CD database file generated by Grip 3.1.2
# 
# Track frame offsets:
#       150
#       36022
#       51292
#       71419
#       96558
#       118992
#       143190
#       178467
#       208130
#       235680
# 
# Disc length: 3728 seconds
# 
# Revision: 1
# Processed by: cddbd v1.5PL3 Copyright (c) Steve Scherf et al.
# Submitted via: Grip 3.1.2
# 
DISCID=9c0e8e0a
DTITLE=Oscar Peterson Trio - Paris Jazz Concert CD 2/2
DYEAR=2002
DGENRE=Jazz
TTITLE0=Six And Four
TTITLE1=But Not For Me
TTITLE2=Mainstem
TTITLE3=(A) I've Got A Crush On You (B) Little Girl Blue
TTITLE4=Bonzo Blues
TTITLE5=Reunion Blues
TTITLE6=Wheatland
TTITLE7=Nightingale
TTITLE8=Hymn To Freedom
TTITLE9=(A) Yours Is My Heart Alone (B) Blues For Big Scottia
EXTD=YEAR: 2002
EXTT0=
EXTT1=
EXTT2=
EXTT3=
EXTT4=
EXTT5=
EXTT6=
EXTT7=
EXTT8=
EXTT9=
PLAYORDER=
